<?xml version="1.0" encoding="iso-8859-1"?>
<!-- Generator: Adobe Illustrator 19.0.0, SVG Export Plug-In . SVG Version: 6.00 Build 0)  -->
<svg version="1.1" id="Layer_1" xmlns="http://www.w3.org/2000/svg" xmlns:xlink="http://www.w3.org/1999/xlink" x="0px" y="0px"
	 viewBox="0 0 511.998 511.998" style="enable-background:new 0 0 511.998 511.998;" xml:space="preserve">
<path style="fill:#845ECC;" d="M118.898,218.548c0.207-5.746,0.299-11.496,0.053-17.242c-0.122-2.848-0.302-5.762-0.571-8.655
	c0.218-5.176,0.443-10.35,0.712-15.521c0.17-3.256-2.22-4.802-4.693-4.728c-0.016-0.354-0.03-0.707-0.049-1.062
	c0.171-6.004,0.449-12.013,0.795-18.066c0.771-13.458,2.429-26.883,2.585-40.377c0.067-5.807,0.193-12.017-0.803-17.756
	c-0.848-4.892-1.795-10.561-6.721-12.807c-1.977-0.902-4.589-0.724-6.139,0.764c-3.101-0.453-6.391,0.113-9.062,1.721
	c-5.67-5.426-16.841-1.847-16.556,6.988c0.093,2.89,0.205,5.778,0.316,8.666c-1.847,20.528-3.085,41.07-4.429,61.625
	c-0.694,10.622-0.872,21.321-0.563,31.96c0.14,4.819,0.547,9.822,2.693,13.8c-1.701,17.42-2.411,34.839-2.705,52.559
	c-0.133,8.03-0.247,16.065-0.246,24.098c-0.032,0.307-0.067,0.613-0.092,0.92c-1.027,12.913-0.298,25.771-0.729,38.708
	c-0.841,25.245-0.471,50.615-2.402,75.818c-1.012,13.207-3.061,26.169-2.839,39.443c0.117,7.015,0.089,14.056,0.01,21.072
	c-0.053,4.733-0.202,9.763,1.769,13.839c-0.848,2.475-1.271,4.988-0.273,7.579c1.255,3.26,4.843,6.421,8.668,4.921
	c1.74-0.683,3.874,0.304,5.715,0.497c2.968,0.311,5.894-0.146,8.865,0.003c3.49,0.175,6.892,0.188,10.311-0.246
	c6.449,1.245,12.702-3.363,13.045-10.278c0.041-0.82,0.115-1.711,0.184-2.648c2.124-3.254,3.056-7.282,2.992-11.26
	c-0.111-6.882-0.68-13.727-0.671-20.649c0.038-27.579,3.512-55.369,1.277-82.887c-0.566-6.966-1.541-13.825-1.709-20.829
	c-0.117-4.913,0.039-9.843-0.006-14.763c0.5-11.492,1.038-22.993,1.271-34.497c0.224-11.006,0.404-22.044,0.197-33.049
	c-0.102-5.449,0.126-10.838,0.424-16.276c0.266-4.87-0.684-11.492,1.053-16.058C121.405,221.702,120.475,219.774,118.898,218.548z"
	/>
<g>
	<path style="fill:#FFC60B;" d="M439.521,137.358c-1.873-1.929-4.345-2.639-6.716-2.339c-2.285-1.732-5.486-2.443-8.509-1.75
		c-0.548-0.075-1.096-0.13-1.639-0.163c-8.659-2.453-18.206-2.566-27.083-1.835c-9.17,0.754-18.242-1.142-27.377,0.098
		c-4.641,0.631-8.857,2.448-13.409,3.376c-4.933,1.006-10.012,0.106-15.015,0.975c-2.571,0.446-4.934,1.085-7.04,1.968
		c-3.452-3.281-9.674-2.413-11.076,2.759c-0.334,1.229-0.512,2.462-0.622,3.699c-1.361,1.119-2.38,2.662-2.785,4.61
		c-2.03,9.724-2.584,20.587-1.622,30.618c-1.133,7.593-2.021,15.154-2.736,22.879c-0.943,10.198-1.11,20.267-0.617,30.469
		c0.543,11.232-1.201,22.578-0.19,33.789c0.929,10.308-0.045,20.966-0.532,31.304c-0.519,11.003-0.197,22.101-0.245,33.116
		c-0.047,10.947-0.744,21.863-0.79,32.811c-0.045,10.764,0.716,21.579,0.415,32.309c-0.32,11.363-0.611,22.732-1.358,34.053
		c-0.435,6.606,0.079,13.26-0.293,19.875c-0.341,6.079-1.734,12.468-1.057,18.502c0.617,5.497,3.391,10.233,9.006,11.83
		c6.426,1.826,12.273,0.687,18.733,0.176c6.426-0.508,13.013-0.675,19.455-0.907c3.715-0.133,7.105,0.269,10.775,0.548
		c3.747,0.284,7.234-0.685,10.934-1.084c6.501-0.702,13.28,0.15,19.841,0.14c1.459-0.003,2.803-0.075,4.241-0.218
		c0.382-0.038,8.056-0.19,2.845-0.658c2.281,0.205,5.607,0.525,6.76,0.747c3.289,0.637,6.155,1.829,9.632,0.921
		c4.766-1.245,8.312-4.909,9.491-9.649c0.518-2.083,0.348-3.44,0.148-5.155c0.249,1.768,0.237-2.148,0.333-3.602
		c0.19-2.874,0.135-5.812,0.1-8.698c-0.108-8.873-1.326-17.633-1.887-26.461c-1.014-15.939-0.587-31.935-0.741-47.893
		c-0.149-15.337,1.947-30.715,1.215-46.023c-0.373-7.803-1.491-15.539-1.771-23.355c-0.276-7.681,0.291-15.128,0.811-22.778
		c1.123-16.548,1.802-33.339,1.646-49.926c-0.071-7.61-0.268-15.299-0.307-22.991c1.64-9.948,3.364-19.883,4.746-29.87
		c1.048-7.572,1.982-14.923,1.631-22.562c-0.144-3.11-0.093-6.243-0.881-9.262c0.333-0.198,0.65-0.421,0.942-0.688
		c0.82-0.633,1.446-1.363,1.99-2.215c1.163-1.026,2.066-2.275,2.517-3.876C442.187,142.283,441.469,139.364,439.521,137.358z"/>
	<path style="fill:#FFC60B;" d="M495.505,275.538c0.284-4.692,0.61-9.385,1.052-14.087c1.313-13.958,0.74-27.633,0.751-41.656
		c0.007-7.186,0.185-14.395,0.036-21.58c-0.163-7.93-1.412-15.774-1.461-23.723c-0.091-14.715,1.019-29.368,0.995-44.083
		c-0.007-3.951,0.032-7.896,0.092-11.838c0.039-0.253,0.076-0.506,0.115-0.759c2.374-15.576,4.641-31.316,5.417-47.068
		c0.285-5.785,0.38-13.11-1.359-19.32c0.19-0.413,0.358-0.841,0.517-1.295c0.677-1.939-0.022-4.797-1.62-6.129
		c-0.843-0.703-1.153-0.946-2.038-1.32c-0.481-0.278-0.999-0.42-1.556-0.421c-0.159-0.036-0.32-0.056-0.479-0.075
		c-1.146-2.795-3.089-5.254-6.436-7.148c-6.433-3.64-12.561-0.962-15.872,3.721c-1.569-0.253-3.131-0.579-4.693-0.815
		c-6.29-0.951-13.662-0.694-19.328,2.447c-3.965,2.198-6.385,7.718-4.931,12.118c1.772,5.363,1.806,13.44,5.001,18.642
		c0.279,9.082,0.576,18.162,0.527,27.246c-0.504,8.232-1.409,16.461-2.505,24.739c-4.291,1.053-7.89,4.51-7.949,10.421
		c-0.127,12.575-1.97,24.96-2.22,37.515c-0.263,13.19-0.847,26.36-0.914,39.553c-0.063,12.376-1.211,24.736-1.306,37.099
		c-0.01,1.343-0.023,2.687-0.034,4.03c-1.87,4.966-1.471,11.253-1.095,16.185c0.061,0.797,0.11,1.592,0.167,2.389
		c-0.221,0.968-0.405,1.89-0.505,2.733c-0.812,6.873-0.33,13.809-0.076,20.704c0.019,0.523,0.025,1.048,0.043,1.571
		c-1.161,9.543-3.035,19.035-3.364,28.629c-0.402,11.702-0.687,23.401-1.494,35.099c-0.852,12.36-0.707,24.623,0.089,37.001
		c0.141,2.199,0.214,4.523,0.358,6.842c-0.115,0.779-0.219,1.551-0.303,2.316l-0.008-0.001c0,0.017,0.001,0.034,0.003,0.051
		c-0.628,5.684-0.46,11.058-0.045,16.955c0.492,7.004,0.51,14.149,1.435,21.118c-0.083,2.37,0.773,4.329,2.161,5.813
		c-0.123,3.382-0.282,6.857-0.087,10.207c0.215,3.67,0.111,7.701,0.741,11.322c1.693,9.738,11.396,10.999,19.531,9.032
		c3.786-0.914,6.377-1.714,10.241-1.215c3.431,0.443,8.148-0.237,11.304,0.759c5.315,1.677,13.07-1.993,13.935-7.912
		c0.97-6.633,0.889-13.268,0.501-19.956c-0.434-7.492-0.098-14.951-0.202-22.452c-0.166-12.131-0.199-23.971,0.277-35.969
		c0.864-6.946,1.718-13.892,2.613-20.834c1.872-14.504,4.093-28.948,5.944-43.454c1.819-14.247,4.868-28.164,5.762-42.55
		C503.579,280.595,499.966,276.879,495.505,275.538z"/>
</g>
<path style="fill:#845ECC;" d="M76.825,23.277c-1.854-6.908-11.753-6.209-13.387,0.004c0,0-0.004-0.003-0.006-0.004
	c-0.468,1.387-0.863,2.823-1.216,4.28c-0.856-0.505-1.799-0.902-2.854-1.12c-2.981-0.62-5.354-0.479-7.602,0.321
	c-1.219,0.168-2.429,0.38-3.666,0.58c-1.496,0.325-1.85,0.563-1.07,0.714c-1.398-0.24-2.803-0.39-4.22-0.424
	c-4.466,0.166-8.991,0.79-13.475,1.047c-11.535,0.657-14.166,9.045-14.938,19.05c-0.434,5.626-1.921,10.706-1.036,16.41
	c0.649,4.188,1.617,8.47,1.561,12.734c-0.057,4.295-0.435,8.859-0.212,13.319c-0.145,0.784-0.288,1.57-0.425,2.361
	c-1.4,8.078-3.066,16.048-3.276,24.272c-0.385,15.107,0.08,30.036,0.019,45.162c-0.03,7.221,0.319,14.255,0.776,21.412
	c0.535,8.373,0.163,16.629,0.478,25.009c0.552,14.688,2.457,29.445,2.234,44.163c-0.236,15.558,0.668,31.232,1.518,46.778
	c0.829,15.172,0.132,30.228,0.284,45.404c0.293,29.21-3.815,58.104-5.775,87.187c-0.517,7.662-1.019,15.488,0.47,23.089
	c0.729,3.723,0.872,8.563,1.601,13.106c-1.887,3.131-2.412,6.794-1.43,10.492c0.947,3.566,3.492,6.598,6.607,8.465
	c4.227,2.531,10.569,1.912,13.98-1.804c0.364-0.396,0.698-0.813,1.009-1.243c1.192,0.075,2.372,0.126,3.513,0.17
	c1.667,0.065,3.25,0.152,4.922,0.07c1-0.069,2-0.135,3.001-0.197c2.688,0.159,3.368-0.056,2.038-0.646
	c0.565-0.054,1.082-0.027,1.583,0.017c0.105,0.247,0.205,0.496,0.328,0.743c4.465,8.952,17.136,3.925,17.636-4.777
	c0.073-1.256,0.005-2.448-0.087-3.628c0.365-2.791,0.992-5.892,0.948-8.775c-0.095-6.184-0.443-12.512,0.817-18.576
	c1.251-6.016,2.298-12.087,1.641-18.237c-0.299-2.811-0.835-5.554-1.36-8.298c2.209-11.539,3.522-23.562,4.339-35.098
	c1.019-14.391,2.272-28.556,2.33-43.037c0.057-13.962-0.804-27.736-1.311-41.663c-0.304-8.377,0.553-22.027-4.952-29.935
	c0.899-9.359,1.439-18.76,2.172-28.142c1.11-14.216,1.174-28.511,1.777-42.768c0.573-13.51,1.552-27.188,1.456-40.671
	c-0.049-6.97-0.012-13.942-0.017-20.912c-0.006-7.229-0.908-14.306-0.703-21.517c0.43-15.148,1.94-30.009,3.014-45.099
	c0.604-8.47,1.269-16.852,2.036-25.329C78.688,39.013,79.138,31.895,76.825,23.277z"/>
<path style="fill:#7AC943;" d="M304.394,461.754c0.122-7.663-0.834-15.618-1.13-22.834c0.153-0.22,0.304-0.442,0.43-0.69
	c4.471-8.896,2.411-20.478,0.898-29.925c-0.694-4.332-0.807-9.094-1.212-13.781c0.813-5.18,1.439-10.396,1.892-15.66
	c4.427-7.328,2.773-17.334,2.325-25.923c-0.104-1.996-0.277-3.984-0.47-5.97c0.399-8.895,0.641-17.794,0.431-26.707
	c-0.027-1.181-0.335-2.167-0.803-3c0.17-5.936,0.146-11.854,0.321-17.822c0.442-15.069,1.741-30.075,2.294-45.147
	c0.521-14.219,3.017-28.802,2.128-43.028c-1.174-18.782-24.489-10.515-36.334-10.808c-14.742-0.364-29.694,1.672-44.466,0.391
	c-8.679-0.751-17.223-0.497-25.932-0.753c-7.902-0.232-15.58-1.856-23.501-1.271c-8.435,0.623-16.404,1.201-24.881,0.456
	c-0.999-0.088-2.005-0.185-3.018-0.286c-0.653-0.15-1.325-0.234-2.01-0.253c-0.399-0.26-0.803-0.512-1.228-0.736
	c-1.576-0.83-3.468-1.658-5.12-2.238c-1.702-0.596-3.291-0.82-4.788-0.723c-1.788-11.723-20.522-11.518-19.921,1.058
	c0.394,8.225,1.464,16.493,2.095,24.71c0.622,8.106-0.039,16.144-0.416,24.258c-0.816,17.567,0.676,35.07,0.319,52.637
	c-0.338,16.655-2.693,33.324-2.376,49.944c0.334,17.523-1.381,35.167-1.473,52.725c-0.083,15.874,0.72,31.658,0.413,47.577
	c-0.139,7.196-0.983,14.041-0.56,21.252c0.509,8.648,0.272,19.679,11.971,20.243c2.589,0.126,4.856-0.646,7.35-1.146
	c3.623-0.728,7.24-0.784,10.929-0.595c8.566,0.438,16.448,1.646,25.063,0.861c5.957-0.543,11.908,0.54,17.885,0.733
	c8.464,0.272,16.637-0.552,25.05-1.12c9.334-0.632,18.322-0.079,27.66-1.323c4.715-0.628,8.492-1.403,13.303-0.835
	c5.181,0.611,8.964,1.067,14.194,0.176c5.192-0.885,10.73-1.214,16.175-1.228c2.231,0.839,4.754,0.876,7.021,0.14
	c0.091,0.004,0.184,0.005,0.276,0.01c8.839,0.389,16.931-2.24,17.539-12.659C313.083,466.214,309.114,462.659,304.394,461.754z
	 M267.562,444.01c-0.127,1.078-0.293,2.153-0.457,3.229c-1.06,0.031-2.132,0.074-3.247,0.13c-0.176,0.009-0.351,0.029-0.527,0.039
	c1.952-3.149,2.944-7.263,3.56-11.242c0.354-0.016,0.707-0.041,1.058-0.083C267.874,438.744,267.869,441.398,267.562,444.01z"/>
<path d="M511.547,195.675c-0.069-26.487,1.253-53.11-0.337-79.565c-0.816-13.579-2.597-26.818-2.904-40.431
	c-0.253-11.238,0.494-22.18-0.899-33.203c3.659-2.943,3.962-9.631-1.847-10.718c-4.864-0.909-9.278-2.303-14.298-2.321
	c-6.211-0.022-12.421-0.053-18.632-0.141c-9.598-0.136-22.622-3.289-31.373,1.92c-8.119,4.833-6.671,16.081-6.771,24.11
	c-0.162,13.129,0.137,26.267-0.266,39.392c-0.188,6.12-0.474,12.245-1.038,18.342c-0.271,2.937-0.569,5.877-1.035,8.789
	c-0.102,0.637-0.628,1.939-0.885,2.909c-1.016,0.045-2.348,0.237-2.981,0.234c-2.926-0.017-5.85,0.026-8.776,0.051
	c-6.394,0.054-12.695-0.219-19.034-1.098c-11.264-1.563-21.945,1.591-33.202,1.277c-10.456-0.291-20.427,2.444-30.912,1.942
	c-8.553-0.409-18.33-0.461-25.168,5.522c-8.535,7.469-7.129,18.816-7.186,29.055c-0.035,6.177-0.295,12.389-0.109,18.562
	c0.041,1.381-0.25,4.833-0.026,6.868c-4.268-0.824-9.149-0.328-13.46-0.464c-6.742-0.212-13.21,0.363-19.898,1.146
	c-5.615,0.659-11.491,1.539-17.15,1.106c-5.949-0.455-11.559-1.931-17.58-1.927c-12.641,0.008-25.283,0.013-37.925,0.026
	c-12.456,0.012-24.132-0.6-36.396-2.93c-5.824-1.106-11.653-2.19-17.462-3.368c-2.899-0.588-5.785-1.262-8.694-1.802
	c-1.065-0.198-4.041-0.14-4.699-0.701c-1.626-1.385-1.617-7.155-1.777-9.186c-0.268-3.381-0.223-6.777-0.231-10.166
	c-0.016-7.418-0.132-14.835-0.234-22.254c-0.202-14.596-0.806-29.256-0.539-43.852c0.073-3.952,0.793-8.118-1.079-11.799
	c-2.224-4.376-6.914-6.233-11.501-7.058c-6.764-1.216-13.492-0.662-20.205,0.359c-2.873,0.437-4.391,0.082-7.188-0.552
	c-1.013-0.229-2.022-0.328-3.03-0.376c-0.12-2.882,0.132-5.802,0.175-8.684c0.075-4.996-0.234-9.987-0.341-14.982
	c-0.221-10.496,1.438-20.9,0.707-31.382c-0.395-5.679-7.285-6.31-9.424-2.109c-5.501-1.157-10.85,0.427-16.593,1.732
	c-4.302,0.977-8.53,1.68-12.923,1.987c-4.478,0.312-8.815,1.601-13.268,1.904C20.784,22.679,6.704,21.672,7.51,38.218
	c0.355,7.285,0.453,14.559,0.431,21.861C7.914,69.29,5.58,78.124,5.733,87.36c0.316,19.04,0.644,38.12-1.017,57.104
	c-1.622,18.55-1.185,37.241-1.359,55.851c-0.184,19.655-0.449,39.311-0.701,58.966c-0.491,38.453-0.446,76.911-0.509,115.368
	c-0.018,10.645,0.087,21.289,0.088,31.934c0,9.201-2.284,17.973-2.234,27.116c0.051,9.473-0.284,18.151,1.632,27.447
	c1.856,9.009,1.582,18.276,3.943,27.289c1.146,4.377,6.205,5.969,9.852,4.457c3.137,1.345,6.771,1.731,10.509,3.088
	c9.149,3.324,19.707,2.097,29.33,2.17c11.497,0.086,22.995,0.171,34.492,0.258c11.302,0.086,22.603,0.086,33.905,0.096
	c11.001,0.01,21.716-1.532,32.671-2.152c22.144-1.253,44.327,0.135,66.481,0.297c10.933,0.08,21.873,0.224,32.805,0.148
	c10.291-0.071,20.284-2.29,30.59-2.234c10.907,0.058,21.808,0.234,32.715,0.243c10.311,0.009,21.023-0.784,31.295,0.132
	c4.756,0.424,9.423,1.697,14.214,1.865c5.448,0.192,10.799-1.266,16.203-1.724c10.626-0.902,21.514-0.093,32.172-0.11
	c10.242-0.016,20.202-2.184,30.495-2.102c4.652,0.036,9.326-0.022,13.974,0.123c5.298,0.167,10.398,1.705,15.686,2.079
	c8.571,0.608,21.934,1.402,24.966-8.931c2.749-9.366,0.788-21.321,0.797-30.983c0.012-12.214,0.12-24.432-0.004-36.645
	c0.674-0.526,1.313-1.189,1.892-2.019c5.991-8.602,5.993-19.684,5.36-29.738c-0.741-11.754,2.022-23.189,1.9-34.982
	c-0.06-5.772,2.144-11.123,2.154-16.943c0.012-5.964-0.405-11.54,0.503-17.467c1.983-12.947,1.268-26.154,1.232-39.212
	C511.691,250.659,511.62,223.167,511.547,195.675z M249.025,204.631c5.571,0.798,11.091,0.482,16.605-0.089
	c1.009,10.198,0.299,20.559,0.188,30.813c-0.004,0.415-0.004,0.828-0.008,1.242c-3.288,0.513-6.558,1.477-9.878,1.582
	c-3.807,0.12-7.585-0.964-11.359-1.391c-6.33-0.718-12.659-0.394-19-0.211c-0.016-0.788-0.031-1.576-0.047-2.363
	c-0.206-10.339-0.328-20.724-0.946-31.057C232.759,203.163,240.919,203.47,249.025,204.631z M223.415,297.506
	c13.495-0.075,26.996-0.004,40.493,0.084c-0.096,1.715-0.18,3.43-0.234,5.148c-0.351,11.048-0.203,22.132-0.196,33.191
	c-2.247-0.08-4.496-0.181-6.75-0.361c-7.19-0.574-14.199-1.64-21.435-1.636c-3.737,0.003-7.385-0.211-11.013-0.505
	c0.176-9.526-0.848-19.084-0.882-28.602C223.389,302.374,223.395,299.936,223.415,297.506z M78.183,103.84
	c-0.045-5.558-0.202-11.091-0.412-16.613c0.311,0.065,0.622,0.126,0.935,0.168c2.377,0.319,4.5,0.264,6.808,0.842
	c2.06,0.516,3.882,1.184,6.053,1.238c6.075,0.155,12.131-1.817,18.245-2.04c1.522-0.056,3.168,0.24,4.644,0.091
	c0.175-0.018,0.312-0.044,0.433-0.074c0.105,1.486-0.245,3.071-0.326,4.54c-0.358,6.425-0.233,12.911-0.319,19.344
	c-0.139,10.475-0.263,20.949-0.383,31.425c-0.497-0.681-1.297-1.189-2.42-1.281c-11.408-0.933-23.068-0.911-34.702-0.674
	C77.206,128.472,78.284,116.194,78.183,103.84z M76.557,148.389c11.68,0.227,23.361,0.308,34.884-0.633
	c1.087-0.089,1.872-0.569,2.373-1.219c-0.016,1.348-0.035,2.696-0.049,4.044c-0.12,10.995-1.953,24.219,3.053,34.465
	c0.132,0.271,0.289,0.512,0.434,0.767c-0.304,0.018-0.609,0.044-0.913,0.057c-12.158,0.526-23.954-0.187-36.083,1.385
	c-1.215,0.158-2.43,0.272-3.644,0.377c-0.018-11.979-0.038-23.96-0.087-35.939C76.522,150.59,76.546,149.49,76.557,148.389z
	 M20.191,71c1.304-9.012,0.911-18.743,0.538-27.837c-0.104-2.531-0.692-5.216-0.512-7.768c0.095,0.004,0.194,0.01,0.31,0.021
	c1.637,0.155,4.084-0.977,5.812-1.104c8.478-0.62,16.714-1.372,25.167-2.54c8.14-1.126,15.199-5.62,23.164-7.154
	c-1.053,9.186-2.313,18.313-2.569,27.597c-0.223,8.082-1.754,16.681-1.021,24.863c-3.955,0.207-7.964,0.758-12.078,1.347
	c-13.142,1.88-26.574,0.549-39.821,1.843C19.422,77.171,19.745,74.079,20.191,71z M18.112,147.236c2.503,0.479,5.443,0.469,7.32,1.1
	c2.255,0.759,2.869,0.86,5.357,0.501c5.163-0.746,10.376-0.725,15.614-0.802c7.402-0.109,14.859,0.032,22.329,0.192
	c-0.041,13.265-0.06,26.531-0.063,39.798c-7.855,0.132-15.703-0.356-23.609-0.412c-6.392-0.045-12.787,0.023-19.18,0.04
	c-2.703,0.006-5.578-0.269-8.383-0.216c-0.048-3.396-0.101-6.794-0.144-10.192C17.225,167.205,17.677,157.221,18.112,147.236z
	 M27.545,242.185c7.934,0.459,15.881,0.529,23.822,0.727c5.852,0.146,11.53,0.363,17.276-0.026
	c-0.013,14.037-0.017,28.075-0.023,42.111c-6.019-0.016-12.092,0.33-18.054,0.37c-8.075,0.054-16.909-1.453-24.885-0.137
	c-2.536,0.418-4.703,1.493-7.043,2.317c-0.001-0.448,0.001-0.896,0-1.345c-0.026-15.195-0.174-30.392-0.369-45.589
	C21.074,241.923,24.356,242,27.545,242.185z M18.229,237.755c-0.189-14.233-0.416-28.466-0.624-42.698
	c2.775,0.047,5.614-0.22,8.276-0.214c6.769,0.017,13.545-0.045,20.315,0.069c7.571,0.128,15.013,0.439,22.471,0.267
	c-0.003,11.762,0,23.523-0.014,35.285c-0.003,2.016-0.001,4.032-0.003,6.048c-8.861,0.965-17.916,0.144-26.817,0.398
	c-4.486,0.128-9.045,0.119-13.505,0.604C24.896,237.887,21.393,239.159,18.229,237.755z M68.617,291.31
	c-0.004,9.93-0.012,19.86-0.017,29.79c-0.003,4.142-0.004,8.285-0.006,12.427c-2.592,0.243-5.181,0.521-7.767,0.86
	c-9.364,1.229-18.394,3.563-27.632,5.403c-4.119,0.82-7.942,0.004-11.917,0.657c-0.922,0.152-1.816,0.596-2.698,1.078
	c0.018-16.274,0.067-32.55,0.057-48.823c1.019-0.115,2.019-0.246,2.891-0.538c3.642-1.215,6.118-1.771,10.023-1.613
	c7.554,0.304,15.004,0.838,22.58,0.887C58.914,291.471,63.783,291.269,68.617,291.31z M23.739,344.833
	c1.277,0.016,2.56,0.416,3.842,0.446c7.409,0.168,15.148-2.729,22.432-3.927c6.168-1.014,12.364-1.742,18.578-2.268l-0.013,25.691
	c-0.003,5.799,0.144,11.636,0.214,17.475c-1.207,0.001-2.414-0.01-3.623-0.047c-7.718-0.233-14.787-0.408-22.333,1.378
	c-5.867,1.387-10.378,1.602-16.299,0.834c-2.677-0.347-5.223-0.547-7.857-0.456c-0.08-12.679-0.113-25.359-0.104-38.039
	C20.296,345.47,21.753,344.808,23.739,344.833z M64.91,452.273c-0.981,7.918-0.183,15.584-1.706,23.508
	c-0.44,2.289-0.596,4.604-0.685,6.925c-2.85,0.022-5.699,0.041-8.549,0.063c-5.677,0.043-11.32,0.086-16.984,0.418
	c-4.036,0.237-7.281-1.137-11.224-1.324c-1.448-0.069-3.914,0.742-5.255,0.229c-0.222-0.086-0.413-0.206-0.602-0.33
	c0.165-5.74-0.759-11.444-1.187-17.295c-0.236-3.24-0.825-6.272-1.535-9.433c-0.953-4.241-0.574-8.201-0.435-12.517
	c0.115-3.604,0.231-7.034,0.433-10.446c4.102-0.097,8.984,1.008,11.988,1.08c8.374,0.201,16.692,0.26,25.062-0.133
	c4.185-0.197,8.424-0.291,12.677-0.38C66.889,439.371,65.741,445.571,64.91,452.273z M67.643,409.462
	c-0.725,5.563-0.908,10.957-0.85,16.464c-5.816,0.321-11.636,0.598-17.455,0.861c-8.67,0.391-17.363,0.447-26.037,0.668
	c-1.918,0.049-3.882,0.004-5.791,0.136c0.201-2.29,0.453-4.601,0.802-6.982c1.241-8.51,0.517-17.4,0.434-25.978
	c-0.023-2.386-0.026-4.772-0.043-7.158c5.232,1.215,10.407,3.214,15.764,3.284c7.407,0.095,14.465-2.624,21.943-2.505
	c4.164,0.067,8.282,0.286,12.408,0.37C68.793,395.606,68.542,402.572,67.643,409.462z M68.754,140.07
	c-0.001,0.307-0.001,0.615-0.003,0.922c-5.842,0.153-11.663,0.316-17.423,0.405c-4.911,0.076-9.822,0.174-14.73,0.328
	c-1.729,0.054-4.13-0.355-5.702,0.291c-0.141,0.058-2.275,1.148-1.811,1.341c-1.39-0.157-3.224-1.481-4.641-1.652
	c-0.885-0.106-3.776,0.439-6.128,0.709c0.264-6.36,0.487-12.723,0.509-19.105c0.043-12.887-0.591-25.852,0.079-38.706
	c12.002,1.403,24.759,1.899,36.716,0.986c5.241-0.4,10.392-1.302,15.641-1.617c-0.205,4.624-0.351,9.258-0.377,13.913
	C70.807,112.021,68.812,125.975,68.754,140.07z M115.677,436.095c-1.438,12.798-0.102,25.89-0.326,38.756
	c-0.038,2.179-0.395,4.825-0.615,7.545c-14.57,0.036-29.138,0.137-43.707,0.246c0.035-1.872,0.181-3.74,0.523-5.61
	c1.21-6.631,1.313-12.75,1.273-19.482c-0.034-5.833,1.749-11.392,2.139-17.193c0.177-2.636,0.149-5.272,0.061-7.908
	c7.933-0.221,15.851-0.627,23.536-1.85c5.798-0.922,11.764-1.262,17.784-1.325C116.149,431.549,115.933,433.823,115.677,436.095z
	 M116.824,422.69c-4.902-0.128-9.826-0.192-14.613,0.367c-9.114,1.062-18.28,1.811-27.465,2.399
	c-0.076-2.256-0.115-4.514-0.016-6.772c0.294-6.644,1.762-13.162,1.987-19.816c0.117-3.439,0.096-6.887,0.045-10.337
	c0.591-0.031,1.181-0.056,1.775-0.101c7.68-0.582,15.307-1.694,23.006-2.029c5.313-0.231,10.67-0.302,16.037-0.282
	C117.635,398.326,117.582,410.526,116.824,422.69z M117.509,366.189c-0.008,4.449,0.014,8.902,0.04,13.352
	c-0.534-0.009-1.067-0.018-1.601-0.026c-13.172-0.211-26.21,1.813-39.292,2.506c-0.032-1.926-0.058-3.851-0.058-5.773l-0.019-37.737
	c8.527-0.492,17.079-0.646,25.625-0.624c5.15,0.014,10.3,0.027,15.449,0.041C117.589,347.349,117.527,356.768,117.509,366.189z
	 M117.683,332.1c-0.664,0.008-1.33,0.018-1.992,0.021c-13.048,0.035-26.105-0.025-39.116,0.791l-0.001-1.448
	c-0.006-13.258-0.001-26.515,0.006-39.774c7.725,0.72,14.896,2.04,22.765,2.01c6.179-0.023,12.488-0.386,18.701-0.044
	C117.903,306.472,117.78,319.285,117.683,332.1z M118.101,287.519c-5.031-0.289-10.076-0.504-15.17-0.455
	c-4.694,0.045-9.462,0.279-14.15-0.071c-4.098-0.306-8.107-1.323-12.199-1.694c0.01-14.456,0.023-28.91,0.035-43.366
	c8.263-1.276,16.32-2.719,24.758-2.776c5.646-0.038,11.368-0.08,17.062,0.048C118.357,255.31,118.264,271.415,118.101,287.519z
	 M118.532,219.886c-0.022,4.164-0.043,8.33-0.062,12.495c-7.377-0.192-14.831-0.205-22.14,0.152
	c-6.672,0.325-13.17,1.68-19.712,2.813c0.009-13.527,0.026-27.054,0.012-40.581c2.045-0.166,4.095-0.364,6.153-0.653
	c11.93-1.667,23.988-0.439,35.892-1.762C118.613,201.528,118.581,210.707,118.532,219.886z M167.857,474.849
	c-0.773,0.693-1.215,1.731-0.812,2.744c0.301,0.696,0.567,1.403,0.816,2.117c-4.676,0.093-9.351,0.269-14.012,0.607
	c-9.711,0.705-19.173,2.054-28.941,2.057c-0.921,0-1.842,0.005-2.763,0.006c0.123-4.749,0.926-9.777,0.918-13.523
	c-0.022-11.282-0.953-22.657,0.311-33.887c0.212-1.883,0.394-3.768,0.56-5.654c7.418,0.137,14.839,0.491,22.044,0.495
	c7.335,0.005,14.67,0.009,22.005,0.013c-0.24,4.712-0.527,9.404-0.604,13.99C167.205,454.168,167.248,464.516,167.857,474.849z
	 M166.488,259.937c-0.049,9.8-0.078,19.601-0.107,29.4c-5.456-0.521-10.835-0.538-16.563-0.433
	c-8.576,0.157-17.03-0.444-25.497-1.003c-0.141-16.166-0.286-32.331-0.403-48.496c1.166,0.056,2.337,0.095,3.497,0.175
	c8.198,0.563,16.223,1.738,24.461,1.749c4.848,0.006,9.698,0.01,14.547,0.014C166.33,247.559,166.518,253.8,166.488,259.937z
	 M165.804,381.986c-1.074-0.08-2.15-0.176-3.229-0.294c-12.517-1.365-25.057-1.78-37.638-2.021
	c-0.061-4.924-0.119-9.845-0.13-14.755c-0.018-8.99-0.07-17.98-0.122-26.97c0.672,0.001,1.343,0.004,2.016,0.005
	c8.216,0.016,15.733,0.623,23.857,1.665c5.152,0.661,10.418,0.627,15.659,0.518C166.095,354.008,165.497,368.048,165.804,381.986z
	 M161.968,334.126c-7.183,0.006-13.903-1.316-20.995-1.926c-5.361-0.462-10.852-0.369-16.315-0.24
	c-0.079-12.562-0.177-25.124-0.285-37.686c7.872,1.078,15.207,1.545,23.211,1.402c6.271-0.113,12.557-0.448,18.771,0.277
	c-0.036,12.721-0.069,25.443-0.107,38.166C164.821,334.118,163.396,334.125,161.968,334.126z M168.272,422.851
	c-6.168,0.004-12.337,0.008-18.506,0.012c-7.968,0.005-15.934,0.006-23.901,0.01c-0.478,0-0.961-0.009-1.442-0.013
	c0.762-12.18,0.731-24.425,0.593-36.659c8.176,0.154,16.352,0.486,24.432,0.824c5.582,0.233,11.048,1.141,16.585,1.627
	c0.276,6.065,0.759,12.102,1.579,18.088C168.332,411.997,168.419,417.412,168.272,422.851z M169.196,209.275
	c-0.115,5.711-0.746,10.904-1.626,16.522c-0.446,2.846-0.729,5.723-0.908,8.617c-5.778,0.023-11.559,0.053-17.334-0.012
	c-8.123-0.089-16.129-1.494-24.236-1.808c-0.407-0.016-0.819-0.025-1.227-0.039c-0.025-3.793-0.06-7.584-0.08-11.377
	c-0.052-9.79-0.159-19.581-0.19-29.373c5.149,2.714,11.737,3.377,17.331,4.583c9.636,2.078,19.423,4.123,29.232,5.481
	C169.782,205.001,169.22,208.122,169.196,209.275z M175.038,407.879c-0.608-5.811-1.767-11.359-1.782-17.238
	c-0.001-0.553,0.008-1.105,0.009-1.658c7.658,0.119,15.343,0.38,22.958-0.596c6.337-0.812,12.585-1.325,18.824-1.626
	c0.004,7.401-0.031,14.803-0.04,22.203c-0.006,4.646-0.013,9.291-0.018,13.938c-5.333-0.03-10.666-0.073-15.999-0.071
	c-7.846,0.003-15.692,0.009-23.539,0.014C175.588,417.81,175.551,412.794,175.038,407.879z M183.88,479.662
	c-2.835-0.029-5.674-0.039-8.513-0.032c-0.903-11.922-0.978-23.864-0.763-35.814c0.083-4.604,0.351-9.288,0.579-13.986
	c6.253,0.004,12.505,0.008,18.758,0.012c6.975,0.004,14.013,0.264,21.037,0.286c-0.006,5.5-0.013,11.001-0.022,16.501
	c-0.01,6.003-0.14,12.015-0.041,18.017c0.087,5.267,1.254,10.306,1.801,15.484C205.771,479.96,194.827,479.77,183.88,479.662z
	 M215.477,353.469c-0.688,6.523-0.575,13.089-0.499,19.638c0.025,2.11,0.035,4.22,0.047,6.33c-1.628,0.071-3.256,0.152-4.885,0.273
	c-12.385,0.929-24.508,2.659-36.84,2.569c0.023-2.658,0.047-5.317,0.038-7.977c-0.036-11.434-0.074-22.868-0.11-34.302
	c0.172-0.001,0.346-0.006,0.518-0.008c7.96-0.063,16.101,0.749,23.984-0.557c4.598-0.762,8.776-1.675,13.497-1.054
	c2.136,0.28,4.237,0.63,6.355,0.92C217.112,344.06,215.978,348.709,215.477,353.469z M217.907,332.851
	c-2.71-0.263-5.431-0.532-8.196-0.76c-7.363-0.605-14.581,2.039-21.975,2.005c-4.843-0.022-9.685-0.013-14.527,0.001
	c-0.039-12.357-0.065-24.715-0.097-37.074c7.093,1.062,14.097,1.123,21.347,0.924c7.55-0.207,15.107-0.324,22.666-0.395
	c-0.026,2.414-0.038,4.835-0.036,7.271C217.094,314.145,218.068,323.52,217.907,332.851z M218.56,270.788
	c-0.742,6.626-1.115,13.185-1.301,19.768c-5.931,0.079-11.861,0.183-17.787,0.352c-8.49,0.244-17.272,1.062-25.669-0.535
	c-0.241-0.045-0.477-0.078-0.718-0.122c-0.031-10.531-0.062-21.062-0.124-31.594c-0.034-5.794-0.162-11.557-0.113-17.309
	c1.917,0.001,3.835,0.004,5.753,0.005c8.137,0.009,16.553-0.601,24.609,0.665c5.527,0.869,11.05,1.176,16.574,1.313
	C219.805,252.505,219.582,261.667,218.56,270.788z M219.74,236.656c-6.683-0.082-13.01-1.424-19.638-2.066
	c-8.321-0.806-16.957-0.188-25.316-0.197c-0.587,0-1.172,0.003-1.759,0.003c0.172-4.056,0.478-8.109,1.045-12.167
	c0.723-5.164,0.506-10.012,0.054-15.19c-0.135-1.538-0.175-3.114-0.234-4.692c0.898,0.108,1.795,0.22,2.693,0.313
	c14.344,1.491,28.824,0.688,43.26,0.521C219.315,214.315,219.611,225.489,219.74,236.656z M221.471,373.107
	c-0.097-6.54-0.258-13.123,0.446-19.638c0.495-4.573,1.544-9.027,2.022-13.593c7.214,0.333,14.444-0.119,21.64,0.61
	c6.023,0.61,11.914,1.131,17.916,1.416c0.014,12.728,0.466,25.48,0.689,38.226c-2.58-0.013-5.159-0.021-7.74-0.051
	c-11.629-0.136-23.276-0.93-34.909-0.819C221.516,377.208,221.502,375.158,221.471,373.107z M259.446,476.853
	c0.003,1.427,0.699,2.408,1.654,2.942c-4.996,0.395-10.004,0.668-15.172,0.65c-7.491-0.026-14.98-0.117-22.469-0.221
	c-0.365-5.216-1.666-10.304-1.807-15.579c-0.159-5.997-0.001-12.018-0.006-18.017c-0.005-5.522-0.014-11.044-0.022-16.566
	c5.58-0.142,11.136-0.538,16.629-1.437c7.79-1.276,15.929-1.415,24.083-1.25c-0.686,5.15-1.506,10.284-2.324,15.317
	C258.213,453.786,259.428,465.657,259.446,476.853z M263.884,411.299c-0.149,3.034-0.407,6.091-0.725,9.153
	c-5.979-0.044-11.948,0.003-17.883,0.268c-7.396,0.332-14.484,2.183-21.934,2.21c-0.575,0.003-1.152-0.007-1.727-0.005
	c-0.006-4.653-0.013-9.306-0.018-13.958c-0.01-7.478,0.006-14.957-0.018-22.436c7.247-0.176,14.515-0.095,21.927,0.168
	c6.921,0.246,13.844,0.339,20.769,0.385C264.345,395.162,264.28,403.237,263.884,411.299z M223.535,290.481
	c0.172-6.557,0.53-13.089,1.242-19.693c0.977-9.058,1.047-18.221,0.918-27.353c8.233,0.095,16.466,0.11,24.703,1.32
	c5.285,0.777,10.277-0.286,15.369-1.013c-0.018,8.578,0.031,17.159-0.14,25.733c-0.14,7.023-0.741,14.022-1.255,21.024
	C250.758,290.411,237.141,290.359,223.535,290.481z M305.623,478.341c-1.334,0.005-2.668,0.008-4.001,0.003
	c-8.609-0.032-17.312-0.677-25.897,0.115c-3.482,0.323-6.899,0.661-10.303,0.968c0.667-0.57,1.113-1.427,1.11-2.574
	c-0.032-12.212-0.961-24.598,1.105-36.667c0.72-4.208,0.794-8.422,1.368-12.627c5.409,0.179,10.785,0.39,16.027,0.394
	c6.223,0.004,12.445,0.008,18.667,0.012c-0.092,7.122-0.158,14.246-0.034,21.356c0.102,5.885,1.407,11.545,1.94,17.386
	C305.957,470.586,305.728,474.463,305.623,478.341z M271.282,387.118c6.921,0.01,13.842-0.012,20.763-0.006
	c3.852,0.003,7.747,0.093,11.662,0.207c0.063,8.139,0.225,16.268,0.177,24.315c-0.018,3.062-0.054,6.127-0.095,9.193
	c-3.758,0.003-7.517,0.004-11.275,0.006c-7.443,0.005-14.935-0.177-22.427-0.297c0.398-3.056,0.666-6.111,0.816-9.237
	C271.293,403.25,271.359,395.186,271.282,387.118z M305.677,346.457c-1.573,11.054-1.961,22.322-1.99,33.611
	c-10.833,0.012-21.67,0.092-32.505,0.084c-0.236-12.637-0.724-25.281-0.872-37.901c7.026,0.6,14.069,2.215,21.066,1.815
	c4.986-0.285,9.833-1.053,14.74-1.545C305.997,343.842,305.862,345.157,305.677,346.457z M306.489,335.863
	c-1.381,0.101-2.758,0.224-4.126,0.404c-7.854,1.034-14.387,1.657-22.276,0.636c-3.284-0.425-6.561-0.614-9.838-0.742
	c-0.054-11.923-0.394-23.899,0.052-35.813c0.034-0.905,0.08-1.811,0.123-2.715c8.847,0.057,17.693,0.109,26.532,0.114
	c3.1,0.001,6.198-0.006,9.298-0.006c-0.038,3.911-0.079,7.821-0.106,11.732C306.088,318.091,306.723,327.073,306.489,335.863z
	 M306.488,274.594c-0.053,5.364-0.113,10.729-0.168,16.094c-0.548,0-1.097,0.004-1.645,0.004
	c-11.275,0.007-22.562-0.074-33.853-0.15c0.521-8.225,1.157-16.439,1.153-24.695c-0.004-7.556-0.045-15.111-0.102-22.667
	c0.339-0.008,0.679-0.017,1.022-0.014c8.202,0.066,16.286,1.793,24.473,2.164c3.074,0.14,6.159,0.199,9.247,0.229
	C306.355,255.225,306.583,264.94,306.488,274.594z M306.905,238.502c-4.756-0.005-9.517-0.111-14.241-0.517
	c-6.948-0.596-13.881-1.891-20.853-1.824c-0.018-1.895-0.029-3.79-0.049-5.685c-0.063-5.808-0.041-11.631-0.277-17.435
	c-0.13-3.197-0.725-6.078-1.418-8.995c4.768-0.56,9.541-1.14,14.348-1.19c5.624-0.06,11.322,0.192,16.942,0.465
	c2.466,0.119,5.004,0.284,7.446-0.063c-0.078,1.593-0.124,3.193-0.093,4.808C308.901,218.311,307.497,228.32,306.905,238.502z
	 M399.289,157.06c0.289-2.869,1.364-5.531,1.728-8.389c0.382-3.004,0.188-6.063-0.211-9.098c4.979,0.637,9.93,1.176,14.986,1.264
	c5.987,0.105,14.509,1.37,21.136-0.6c-0.28,2.168-0.617,4.272-0.99,6.255c-0.995,5.289-0.658,10.303-1.053,15.619
	c-0.422,5.699-2.297,10.855-2.218,16.651c0.06,4.43-0.203,8.826-0.54,13.212c-8.554-0.158-17.114-0.442-25.663-0.184
	c-2.142,0.065-4.281,0.183-6.418,0.32c-0.073-8.591-0.162-17.188-0.54-25.759C399.368,163.242,398.976,160.166,399.289,157.06z
	 M358.892,140.609c2.066-0.227,4.148-0.364,6.28-0.299c5.557,0.17,10.815,0.212,16.339-0.539c5.449-0.741,10.506-1.357,16.002-0.627
	c0.109,0.014,0.218,0.027,0.326,0.043c-0.079,2.369-0.139,4.737-0.431,7.091c-0.635,5.104-2.883,9.503-2.96,14.736
	c-0.154,10.509-0.354,21.024-0.521,31.539c-6.565,0.526-13.126,1.135-19.714,1.282c-5.352,0.12-10.701-0.075-16.049-0.271
	c0.338-6.576,0.675-13.154,0.759-19.741C359.067,162.759,358.08,151.642,358.892,140.609z M424.147,362.843
	c0.11,4.784,0.784,9.313,1.556,14.014c0.061,0.369,0.101,0.747,0.152,1.12c-8.342,0.026-16.685,0.069-25.026,0.075
	c-2.014,0.001-4.027,0.003-6.041,0.004c-0.022-1.86-0.056-3.719-0.052-5.566c0.019-10.181,0.583-20.269,1.183-30.408
	c9.991,0.159,20.206-0.512,30.305-0.475c-0.124,1.356-0.272,2.707-0.469,4.047C424.897,351.482,424.011,356.911,424.147,362.843z
	 M357.4,213.072c0.066-4.429,0.245-8.854,0.456-13.277c3.123,0.158,6.243,0.317,9.348,0.404c8.896,0.246,17.727-0.425,26.581-0.999
	c-0.244,10.233-0.749,20.294-1.619,30.553c-0.124,1.474-0.199,2.948-0.247,4.421c-1.177,0.005-2.358,0.003-3.534,0.026
	c-3.341,0.065-6.196,0.725-9.411,1.449c-4.847,1.091-9.73,1.18-14.681,1.123c-2.667-0.031-5.341-0.146-8.015-0.26
	C356.774,228.712,357.283,220.935,357.4,213.072z M355.634,247.44c0.065-1.277,0.136-2.552,0.21-3.825
	c5.495,0.206,10.992,0.418,16.486,0.107c3.304-0.188,6.341-0.755,9.56-1.497c3.389-0.781,6.664-0.865,10.013-0.838
	c0.146,6.965,0.62,13.926,0.249,20.901c-0.482,9.053-2.11,17.882-2.681,26.921c-10.539,0.565-21.034,1.4-31.656,1.39
	c-0.797-0.001-1.593,0.004-2.39,0.004c0.053-2.892,0.086-5.789,0.086-8.689C355.506,270.445,355.055,258.893,355.634,247.44z
	 M312.621,245.568c3.534-0.026,7.065-0.087,10.583-0.179c8.755-0.228,17.285-2.167,26.071-1.983c0.184,0.004,0.368,0.01,0.552,0.014
	c-0.348,9.663-0.585,19.328-0.602,28.991c-0.01,6.043,0.108,12.122,0.137,18.197c-12.199,0.01-24.4,0.043-36.601,0.066
	c-0.004-2.777-0.018-5.553-0.021-8.33c-0.014-11.626-0.062-23.249-0.144-34.874C312.593,246.836,312.614,246.202,312.621,245.568z
	 M312.833,318.512c-0.034-6.926-0.039-13.851-0.053-20.777c11.659-0.005,23.32-0.01,34.979-0.025
	c0.526-0.001,1.056,0.01,1.583,0.013c-0.039,3.071-0.119,6.137-0.277,9.193c-0.503,9.694-1.483,19.146-1.775,28.808
	c-5.835,0.026-11.672,0.054-17.508,0.073c-5.544,0.018-11.183-0.25-16.786-0.193C313.05,329.917,312.861,324.219,312.833,318.512z
	 M311.998,350.543c0.407-2.806,0.654-5.617,0.806-8.43c0.484-0.008,0.966-0.027,1.453-0.023c9.488,0.087,18.975,0.06,28.464,0.044
	c1.494-0.003,2.988-0.018,4.483-0.032c0.005,11.442,0.24,22.936-0.267,34.365c-0.032,0.746-0.071,1.488-0.109,2.233
	c-4.86,0.697-9.601,1.473-14.73,1.477c-6.96,0.004-13.918-0.051-20.877-0.08C311.004,370.24,310.597,360.214,311.998,350.543z
	 M341.905,387.076c1.551-0.154,3.054-0.342,4.54-0.535c-0.298,6.855-0.365,13.675,0.742,20.549
	c0.737,4.575,1.149,9.142,1.394,13.711c-12.356,0.008-24.711,0.013-37.067,0.021c0-0.118,0.001-0.236,0.001-0.354
	c-0.062-10.973-0.128-21.944-0.193-32.917C321.588,387.865,331.905,388.072,341.905,387.076z M313.839,478.266
	c0.06-8.247-1.044-16.067-1.895-24.482c-0.858-8.48-0.61-17.203-0.482-25.817c12.46,0.008,24.92,0.016,37.379,0.022
	c0.12,6.547-0.004,13.107-0.023,19.715c-0.03,10.194-1.479,21.193,1.181,31.065C338.002,477.898,325.906,478.117,313.839,478.266z
	 M351.759,201.99c-0.579,11.43-1.184,22.868-1.658,34.311c-3.039-0.063-6.075-0.038-9.102,0.214
	c-8.47,0.703-16.633,1.835-25.168,1.924c-0.983,0.01-1.968,0.021-2.952,0.031c0.5-8.306,1.492-16.578,1.442-24.91
	c-0.023-3.784-0.286-7.583-0.267-11.37c2.549,0.109,5.097,0.194,7.617,0.093c4.729-0.189,9.094-2.127,13.809-2.557
	c5.444-0.497,10.93-0.429,16.416-0.209C351.848,200.341,351.8,201.164,351.759,201.99z M343.604,193.269
	c-8.645,0.105-16.723,2.246-25.153,2.729c2.881-6.72,0.798-16.219,0.759-22.932c-0.035-6.136-0.039-12.273-0.171-18.408
	c-0.096-4.474-0.955-9.996,3.942-12.05c7.553-3.17,17.982,0.29,25.997-0.648c2.091-0.245,4.14-0.567,6.185-0.864
	c-1.471,8.341-1.452,16.67-1.593,25.318c-0.148,9.004-0.768,17.974-1.321,26.953C349.37,193.286,346.488,193.234,343.604,193.269z
	 M360.089,479.78c-1.053-0.14-2.109-0.243-3.163-0.363c-0.329-3.725-1.057-7.374-1.023-11.238c0.053-5.97-0.005-11.943,0-17.914
	c0.005-7.405,0.277-14.847,0.184-22.269c8.724,0.005,17.447,0.012,26.171,0.016c1.133,0.001,2.266,0.018,3.399,0.022
	c0.066,2.857,0.115,5.703,0.098,8.518c-0.041,6.82-0.096,13.64-0.145,20.46c-0.047,6.385-0.801,13.271,0.482,19.55
	c0.013,0.117,0.034,0.228,0.061,0.338c0.01,0.048,0.016,0.096,0.026,0.144c0.005-0.001,0.01-0.003,0.014-0.004
	c0.157,0.527,0.448,0.981,0.841,1.338C378.042,478.842,368.97,480.964,360.089,479.78z M385.999,397.471
	c-0.826,7.62-0.723,15.478-0.523,23.308c-9.877,0.004-19.754,0.012-29.632,0.017c-0.111-2.075-0.251-4.149-0.465-6.218
	c-1.025-9.877-2.276-19.044-2.083-28.905c2.96-0.332,5.951-0.557,9.141-0.478c8.321,0.209,16.666,0.053,24.992,0.047
	C387.094,389.329,386.449,393.318,385.999,397.471z M387.715,363.543c-0.083,4.837-0.074,9.68-0.066,14.518
	c-3.482,0.003-6.962,0.004-10.444,0.006c-7.76,0.005-15.923-0.81-23.677-0.167c0.288-9.832,0.187-19.667,0.181-29.505
	c-0.001-2.131,0.014-4.259,0.044-6.385c11.724-0.203,23.466-0.54,35.163-0.139C388.419,349.091,387.84,356.306,387.715,363.543z
	 M389.635,327.854c-0.06,2.591-0.18,5.179-0.325,7.765c-11.214,0.005-22.425,0.012-33.653,0.069
	c-0.593,0.003-1.186,0.004-1.78,0.008c0.313-12.658,0.996-25.264,1.369-37.914c5.794,0.095,11.604,0.218,17.366-0.043
	c5.598-0.253,11.085-1.19,16.646-1.635C389.252,306.688,389.876,317.27,389.635,327.854z M425.882,474.401
	c-0.539,1.098-0.661,2.155-0.501,3.113c-2.236,0.228-4.486,0.455-6.765,0.65c-8.825,0.756-17.932,0.197-26.817,0.132
	c0.26-0.332,0.461-0.746,0.575-1.254c2.376-10.657,0.655-23.19,0.652-34.098c-0.001-4.955-0.008-9.909-0.018-14.864
	c10.543,0.104,21.081,0.324,31.619,0.592c0.304,2.627,0.609,5.255,0.802,7.895c0.53,7.208,0.098,14.536-0.096,21.756
	c-0.079,2.92-0.387,5.894-0.234,8.816C425.188,468.88,426.584,472.967,425.882,474.401z M425.833,396.524
	c-0.539,6.731-2.302,13.105-2.206,19.914c0.022,1.604,0.111,3.201,0.234,4.794c-10.291-0.259-20.585-0.453-30.883-0.456
	c-0.018-4.545-0.036-9.091-0.079-13.636c-0.057-6.009,0.687-11.602,1.447-17.548c0.184-1.443,0.298-2.894,0.367-4.351
	c10.543,0.009,21.085,0.017,31.628,0.025C426.371,389.054,426.126,392.874,425.833,396.524z M426.819,325.713
	c-0.061,3.207-0.087,6.453-0.207,9.693c-7.076,0.155-14.149,0.189-21.233,0.201c-3.038,0.005-6.07,0.005-9.106,0.006
	c0.639-13.273-0.03-26.519,0.066-39.746c10.168,0.022,20.355,0.474,30.484,0.183C426.913,305.938,427.004,315.829,426.819,325.713z
	 M428.788,249.32c-0.083,5.87-1.264,11.526-1.824,17.347c-0.63,6.545-0.262,13.253-0.221,19.82c0.005,0.825,0.014,1.652,0.021,2.477
	c-7.28-0.043-14.559-0.271-21.843-0.257c-2.823,0.007-5.633,0.084-8.44,0.187c0.21-6.338,0.675-12.672,1.649-19.002
	c1.459-9.484,0.557-18.929,0.37-28.439c8.588,0.075,17.241,0.281,25.781-0.575c1.677-0.168,3.312-0.306,4.933-0.426
	C428.995,243.392,428.83,246.344,428.788,249.32z M430.965,213.136c0.104,6.707-0.513,13.302-1.118,19.905
	c-5.795,0.563-11.547,1.246-17.42,1.269c-4.622,0.018-9.255-0.067-13.886-0.119c0.351-9.961,1.763-19.834,1.627-29.851
	c-0.025-1.837-0.039-3.675-0.057-5.513c10.211-0.51,20.417-0.076,30.631,0.198c0.273,0.008,0.545,0.013,0.819,0.019
	C431.194,203.731,430.891,208.417,430.965,213.136z M481.456,478.135c-2.56-0.39-6.005,0.404-8.492,0.179
	c-4.469-0.403-8.804-1.679-13.299-1.979c-4.644-0.311-9.376-0.108-14.031-0.149c-3.443-0.031-6.804,0.127-10.14,0.378
	c0.801-2.968-0.049-5.791-0.504-9.188c-0.81-6.05-0.242-12.622-0.369-18.721c-0.136-6.556-1.058-13.164-1.771-19.771
	c16.348,0.434,32.697,0.88,49.051,1.029c-0.018,3.106-0.031,6.212-0.029,9.319c0.009,9.649-0.041,19.299,0.06,28.947
	C481.944,469.363,481.418,474.743,481.456,478.135z M486.004,383.815c-0.811,3.87-2.582,7.387-3.291,11.298
	c-0.759,4.179-0.74,8.398-0.724,12.622c0.018,4.964-0.009,9.929-0.043,14.894c-16.588-0.171-33.168-0.715-49.75-1.177
	c-0.231-3.72-0.28-7.433,0.045-11.126c0.745-8.447,2.164-16.692,2.193-25.05c3.137,0.003,6.275,0.005,9.412,0.008
	c8.456,0.007,16.974,0.665,25.421,0.376c3.943-0.135,7.258-0.876,11.06-1.767c1.933-0.453,3.879-0.619,5.835-0.663
	C486.105,383.42,486.048,383.609,486.004,383.815z M492.168,345.026c-0.571,3.449-0.311,6.776-0.243,10.245
	c0.122,6.315-1.224,12.245-2.062,18.453c-0.105,0.78-0.167,1.573-0.221,2.367c-5.095,0.174-9.725,0.764-15.03,1.777
	c-7.516,1.435-15.576,0.211-23.166,0.148c-5.798-0.049-11.596-0.054-17.395-0.049c-0.124-1.091-0.269-2.184-0.464-3.282
	c-1.035-5.83-1.636-11.619-1.385-17.558c0.218-5.141,1.197-10.205,1.772-15.325c4.729,0.241,9.412,0.729,14.012,1.633
	c3.056,0.601,6.085,0.922,9.159,0.228c4.215-0.952,5.835-1.422,10.039-0.192c8.293,2.43,16.736-0.794,25.066-1.199
	c0.189-0.009,0.36-0.045,0.534-0.079C492.549,343.127,492.326,344.066,492.168,345.026z M495.982,301.08
	c-0.083,6.005-0.957,11.658-1.768,17.58c-0.791,5.778,0.114,11.46-0.206,17.234c-0.001,0.017-0.004,0.034-0.004,0.051
	c-0.474-0.273-1.051-0.435-1.754-0.402c-7.618,0.37-15.764,3.605-23.277,1.44c-2.484-0.716-4.461-1.728-7.083-1.547
	c-3.351,0.232-6.065,2.115-9.519,1.925c-3.183-0.176-6.36-1.363-9.534-1.751c-2.802-0.342-5.609-0.412-8.422-0.382
	c0.435-13.138-0.223-26.339-0.597-39.514c4.132-0.285,8.251-0.736,12.352-1.443c8.795-1.516,18.598-0.323,27.5-0.317
	c7.46,0.005,14.918,0.012,22.377,0.019C496.028,296.341,496.014,298.71,495.982,301.08z M496.093,261.544
	c-0.022,8.374,0.007,16.751-0.012,25.128c-14.797-0.079-29.623-0.35-44.401-0.051c-6.127,0.124-11.962,1.639-18.023,2.167
	c-0.181-10.468-0.023-20.909,1.189-31.281c0.672-5.754,0.268-11.53,0.618-17.303c0.001-0.029,0.005-0.058,0.006-0.087
	c5.531-0.158,10.971,0.074,16.826,0.924c8.267,1.201,16.387-2.746,24.366-1.025c3.378,0.729,6.18,1.517,9.701,1.132
	c3.391-0.37,6.531-0.218,9.784-0.06C496.129,247.905,496.111,254.724,496.093,261.544z M496.164,233.9
	c-2.291-0.402-4.583-0.767-6.924-0.553c-4.052,0.37-6.711,0.617-10.673-0.249c-7.51-1.639-13.667,1.451-21.074,1.308
	c-7.234-0.139-13.933-2.255-21.238-1.88c0.508-4.005,1.038-7.996,1.003-12.091c-0.051-5.984-0.393-11.82,0.258-17.793
	c0.127-1.161,0.26-2.315,0.394-3.468c8.99,0.126,17.94-0.092,26.843-1.614c5.518-0.944,10.878-0.106,16.363-0.797
	c5.045-0.635,10.101-1.199,15.149-1.806C496.229,207.94,496.198,220.92,496.164,233.9z M496.301,181.465
	c-0.006,2.117-0.01,4.234-0.017,6.351c-3.341,0.013-6.658,0.427-9.995,0.895c-5.417,0.759-10.547,0.632-15.958,0.904
	c-4.767,0.24-9.383,1.617-14.129,2.036c-5.613,0.497-11.309,0.439-16.938,0.415c-0.202-0.001-0.403-0.004-0.605-0.005
	c0.249-2.895,0.398-5.799,0.307-8.747c-0.205-6.721,1.039-12.554,1.85-19.148c0.373-3.036,0.038-6.043,0.159-9.084
	c0.141-3.532,1.035-6.865,1.527-10.35c0.368-2.601,0.69-5.44,0.876-8.372c0.067-0.074,0.117-0.158,0.181-0.233
	c0.729-0.056,1.462-0.119,2.219-0.234c8.571-1.316,16.609-2.525,25.333-2.365c8.465,0.154,17.44,1.699,25.822,0.394
	c0.14-0.022,0.267-0.062,0.392-0.104C497.194,149.701,496.355,165.605,496.301,181.465z M496.935,128.115
	c-7.594-1.297-15.799-1.005-23.506-1.192c-8.197-0.198-16.4,0.01-24.456,1.668c-0.709,0.146-1.417,0.293-2.126,0.438
	c0.413-1.782,0.675-3.61,0.924-5.381c0.948-6.751,1.574-13.537,1.891-20.347c0.266-5.703,0.313-11.412,0.251-17.122
	c4.113,0.277,8.418-0.175,11.73-0.332c10.469-0.496,22.839,4.399,33.372,2.047c0.06,5.378,0.904,10.667,1.361,16.04
	c0.688,8.087,0.944,16.188,0.971,24.296C497.215,128.183,497.081,128.139,496.935,128.115z M498.944,51.901
	c-1.108,5.815-3.216,11.041-3.304,17.03c-0.06,4.082-0.251,8.137-0.425,12.203c-4.828-0.728-10.304,0.306-15.048-0.372
	c-5.19-0.741-10.364-1.793-15.637-1.561c-3.696,0.162-7.379,0.721-11.065,1.028c-1.051,0.088-2.312,0.244-3.648,0.368
	c-0.153-6.79-0.422-13.58-0.657-20.36c-0.113-3.272-0.218-6.544-0.286-9.817c-0.026-1.244-0.869-6.424-0.056-7.646
	c1.093-1.646,11.816-0.644,14.61-0.556c6.882,0.219,13.764,0.071,20.649-0.017c5.747-0.074,10.711,0.363,16.194,1.232
	C499.867,46.26,499.48,49.088,498.944,51.901z"/>
<g>
</g>
<g>
</g>
<g>
</g>
<g>
</g>
<g>
</g>
<g>
</g>
<g>
</g>
<g>
</g>
<g>
</g>
<g>
</g>
<g>
</g>
<g>
</g>
<g>
</g>
<g>
</g>
<g>
</g>
</svg>
